<svg xmlns="http://www.w3.org/2000/svg" width="2000" height="2000" preserveAspectRatio="xMidYMid meet" version="1.0" viewBox="0 0 1500 1500"><g fill="#000" stroke="none"><path d="M7005 14840 c-44 -4 -143 -13 -220 -19 -77 -6 -149 -13 -160 -16 -11 -3 -78 -12 -150 -20 -71 -9 -164 -21 -205 -29 -104 -19 -327 -64 -375 -76 -22 -5 -80 -19 -130 -31 -175 -41 -459 -122 -609 -176 -231 -81 -264 -93 -336 -121 -197 -76 -561 -244 -745 -344 -44 -24 -116 -64 -160 -88 -157 -85 -624 -383 -724 -461 -14 -11 -71 -54 -126 -95 -206 -155 -241 -182 -255 -199 -8 -10 -48 -44 -90 -75 -41 -32 -88 -72 -105 -90 -16 -18 -52 -50 -80 -72 -95 -76 -272 -247 -375 -364 -58 -65 -132 -148 -165 -184 -34 -36 -88 -98 -120 -139 -33 -41 -89 -111 -125 -156 -137 -170 -373 -498 -457 -635 -22 -36 -69 -112 -105 -170 -84 -135 -255 -451 -328 -605 -59 -126 -200 -451 -246 -570 -106 -273 -263 -817 -319 -1105 -9 -47 -22 -114 -30 -150 -12 -60 -29 -171 -55 -375 -10 -76 -17 -139 -40 -355 -15 -148 -33 -672 -25 -726 4 -27 11 -152 16 -279 13 -298 23 -445 37 -525 22 -119 42 -270 42 -310 0 -21 5 -51 11 -67 11 -28 34 -143 48 -243 8 -49 41 -192 71 -305 6 -22 22 -80 35 -130 13 -49 35 -124 48 -165 14 -41 41 -124 61 -185 76 -229 137 -397 177 -483 16 -35 29 -66 29 -69 0 -16 140 -320 210 -458 260 -508 531 -918 917 -1387 204 -248 454 -511 658 -693 55 -49 131 -118 168 -152 37 -35 87 -78 111 -96 23 -17 96 -75 162 -127 171 -137 273 -211 494 -358 283 -188 453 -287 740 -430 305 -153 360 -178 600 -272 352 -138 499 -187 830 -274 233 -61 269 -70 335 -82 39 -7 113 -22 165 -34 52 -12 127 -25 165 -30 39 -4 132 -18 208 -29 266 -42 731 -76 1037 -75 213 1 667 25 686 37 6 3 52 7 104 8 51 1 109 6 129 11 33 8 92 17 326 48 44 6 91 15 105 19 14 5 79 19 145 31 66 12 140 28 165 36 25 8 83 23 130 33 481 109 988 295 1499 551 335 167 501 264 841 490 297 198 440 309 772 594 130 113 495 478 613 614 76 88 193 229 329 396 104 129 382 542 510 757 232 393 414 776 572 1199 59 160 79 219 132 395 128 424 217 840 256 1195 9 74 20 180 27 235 17 152 31 476 31 710 0 224 -17 693 -26 723 -4 10 -13 79 -21 153 -30 279 -38 328 -75 503 -141 658 -236 965 -485 1566 -112 270 -318 658 -534 1005 -304 490 -819 1103 -1226 1460 -49 44 -119 107 -155 140 -52 47 -269 227 -360 298 -104 81 -263 196 -335 243 -49 31 -139 90 -200 129 -176 115 -307 188 -640 358 -79 40 -147 73 -310 147 -314 144 -700 282 -1035 372 -168 44 -318 80 -430 103 -41 8 -106 22 -145 30 -99 22 -240 43 -382 59 -67 8 -126 17 -132 20 -6 4 -68 9 -138 13 -70 3 -139 10 -153 16 -30 12 -984 18 -1105 7z m1215 -95 c377 -47 385 -48 620 -91 133 -24 219 -43 420 -91 422 -101 922 -276 1300 -456 63 -30 149 -71 190 -90 239 -114 712 -392 921 -542 259 -185 518 -388 674 -529 129 -116 525 -512 641 -641 90 -100 273 -325 393 -483 125 -165 382 -560 487 -747 293 -525 509 -1039 677 -1615 88 -298 178 -744 227 -1120 58 -448 58 -1214 0 -1673 -33 -257 -40 -306 -76 -497 -206 -1085 -655 -2115 -1304 -2985 -97 -130 -304 -390 -363 -455 -18 -19 -91 -100 -163 -180 -196 -216 -480 -483 -709 -667 -22 -17 -75 -60 -119 -95 -538 -433 -1237 -831 -1916 -1090 -471 -179 -930 -302 -1445 -387 -326 -54 -885 -101 -1195 -101 -198 0 -586 29 -889 66 -434 53 -1012 188 -1426 334 -49 17 -126 44 -170 60 -44 15 -147 56 -230 90 -82 33 -168 68 -190 77 -22 9 -146 69 -275 134 -828 411 -1518 926 -2136 1594 -330 357 -551 645 -846 1105 -206 320 -478 864 -617 1235 -50 131 -188 551 -211 640 -66 253 -87 340 -115 480 -9 44 -23 107 -30 140 -7 33 -21 107 -30 165 -8 58 -20 130 -25 160 -29 168 -70 720 -74 995 -1 98 29 629 44 765 41 372 129 831 226 1185 69 252 220 678 327 925 99 230 111 254 192 415 258 506 565 967 938 1410 171 202 598 638 776 791 340 292 707 557 1081 781 156 94 680 357 880 443 304 131 701 265 1000 338 47 12 130 32 185 45 384 95 848 164 1190 177 323 12 1019 3 1165 -15z" transform="translate(0.000000,1500.000000) scale(0.100000,-0.100000)"/><path d="M9590 12723 c-203 -18 -442 -74 -658 -154 -213 -79 -412 -185 -594 -316 -87 -63 -308 -249 -308 -261 -1 -4 -24 -32 -51 -62 -303 -328 -513 -778 -581 -1245 -17 -119 -17 -603 1 -745 30 -245 98 -494 229 -835 86 -224 98 -252 265 -610 55 -118 266 -535 306 -605 78 -136 369 -728 470 -958 111 -251 238 -606 315 -882 127 -457 145 -921 55 -1400 -131 -688 -546 -1303 -1149 -1703 -221 -147 -603 -304 -862 -356 -500 -100 -983 -73 -1433 81 -242 83 -553 236 -725 357 -223 156 -461 381 -597 565 -244 328 -373 636 -440 1053 -22 137 -25 659 -5 793 59 391 163 706 349 1060 152 290 386 596 593 774 126 108 201 165 302 228 371 231 821 323 1194 246 296 -62 471 -145 659 -312 128 -113 266 -377 315 -601 22 -96 50 -307 50 -369 0 -128 -50 -430 -102 -619 -97 -353 -313 -718 -531 -895 -280 -228 -556 -317 -821 -268 -282 54 -454 157 -615 369 -117 156 -190 387 -178 567 14 213 128 474 260 597 111 102 272 193 342 193 17 0 36 -16 69 -58 67 -88 150 -160 199 -173 127 -34 258 38 307 169 27 70 25 108 -6 170 -53 106 -193 162 -405 162 -337 0 -648 -177 -855 -486 -176 -263 -235 -630 -154 -949 57 -224 254 -486 460 -613 271 -167 773 -275 1120 -242 372 35 675 150 955 361 157 119 261 229 387 414 220 320 338 708 338 1104 -1 728 -413 1322 -1100 1589 -353 137 -914 218 -1265 183 -468 -47 -865 -176 -1245 -403 -465 -279 -892 -776 -1113 -1294 -39 -90 -125 -347 -155 -464 -73 -278 -97 -586 -72 -935 22 -304 77 -537 190 -809 113 -270 320 -566 575 -821 210 -211 320 -298 565 -455 467 -297 1184 -533 1809 -595 627 -62 1344 86 1891 391 387 215 693 471 978 820 96 118 256 373 340 543 105 212 111 226 177 418 161 463 221 913 185 1370 -30 370 -147 838 -302 1203 -25 58 -51 121 -58 140 -17 46 -303 624 -356 721 -24 42 -56 101 -71 130 -75 139 -121 221 -165 298 -26 46 -48 85 -48 87 0 1 -27 48 -60 104 -33 56 -60 103 -60 105 0 2 -27 49 -60 105 -33 56 -60 103 -60 105 0 1 -30 56 -66 121 -243 433 -413 874 -484 1248 -37 200 -44 264 -44 426 0 184 16 314 65 507 56 223 113 352 236 538 225 338 495 575 846 739 217 103 399 150 630 167 339 24 666 -56 920 -225 100 -66 259 -226 320 -321 138 -217 204 -414 229 -688 26 -290 -37 -643 -170 -957 -160 -377 -397 -618 -680 -691 -92 -23 -257 -25 -365 -5 -154 30 -312 120 -429 245 -258 276 -283 606 -70 920 108 160 319 323 393 304 10 -3 40 -34 67 -68 62 -80 91 -104 170 -139 87 -38 171 -53 220 -38 148 44 242 255 174 389 -79 155 -339 206 -651 129 -315 -77 -590 -352 -686 -683 -57 -196 -68 -351 -34 -503 48 -224 157 -405 313 -525 138 -105 316 -182 516 -225 92 -20 134 -23 335 -23 256 0 350 12 520 64 345 107 636 343 855 694 98 157 175 375 211 600 22 132 17 447 -9 585 -43 232 -146 467 -273 625 -127 156 -229 251 -388 358 -178 121 -445 233 -695 292 -211 50 -294 58 -616 60 -168 1 -325 1 -350 -2z" transform="translate(0.000000,1500.000000) scale(0.100000,-0.100000)"/></g></svg>